<svg version="1.1" xmlns="http://www.w3.org/2000/svg" viewBox="0 0 812 812">
<path d="M0 0 C0.69 -0 1.38 -0.01 2.1 -0.01 C4.41 -0.02 6.72 -0.02 9.03 -0.02 C10.69 -0.03 12.35 -0.03 14 -0.04 C18.51 -0.05 23.01 -0.06 27.52 -0.06 C30.33 -0.06 33.15 -0.07 35.97 -0.07 C44.79 -0.08 53.61 -0.09 62.43 -0.1 C72.6 -0.1 82.77 -0.12 92.93 -0.15 C100.8 -0.17 108.67 -0.18 116.54 -0.18 C121.23 -0.18 125.93 -0.19 130.62 -0.21 C135.04 -0.22 139.46 -0.23 143.88 -0.22 C145.5 -0.22 147.12 -0.22 148.73 -0.23 C162.66 -0.31 174.5 1.49 185.24 11.14 C193.43 19.73 197.15 29.37 197.13 41.13 C197.13 41.82 197.13 42.5 197.13 43.21 C197.13 45.45 197.12 47.7 197.11 49.94 C197.11 51.5 197.11 53.07 197.11 54.63 C197.1 58.73 197.09 62.83 197.08 66.93 C197.07 71.12 197.07 75.31 197.06 79.5 C197.05 87.71 197.03 95.93 197.01 104.14 C206.25 104.14 215.49 104.14 225.01 104.14 C225.67 102.49 226.33 100.84 227.01 99.14 C228.51 96.96 230.04 94.86 231.64 92.77 C237.33 85.16 242.75 77.38 248.15 69.57 C251.51 64.72 254.89 59.91 258.39 55.16 C262.46 49.61 265.65 44.09 268.59 37.88 C270.86 33.5 273.84 29.89 277.01 26.14 C277.8 25.07 277.8 25.07 278.6 23.97 C289.47 10.05 307.98 2.62 325.01 0.14 C326.92 0.05 328.84 0.01 330.75 0.01 C331.87 0 333 -0 334.16 -0.01 C335.39 -0.01 336.62 -0.01 337.88 -0.01 C339.19 -0.01 340.51 -0.01 341.86 -0.02 C345.49 -0.03 349.13 -0.03 352.77 -0.03 C356.69 -0.04 360.62 -0.05 364.54 -0.06 C374.02 -0.08 383.49 -0.09 392.97 -0.1 C397.44 -0.1 401.91 -0.1 406.37 -0.11 C421.24 -0.13 436.1 -0.14 450.97 -0.15 C454.82 -0.15 458.68 -0.15 462.53 -0.15 C463.97 -0.16 463.97 -0.16 465.43 -0.16 C480.94 -0.16 496.44 -0.19 511.95 -0.22 C527.89 -0.26 543.82 -0.27 559.76 -0.28 C568.7 -0.28 577.64 -0.29 586.58 -0.31 C594.2 -0.33 601.81 -0.34 609.43 -0.33 C613.31 -0.33 617.19 -0.33 621.07 -0.35 C647.75 -0.48 670.09 1.53 690.57 20.52 C691.38 21.38 692.18 22.25 693.01 23.14 C693.62 23.76 694.22 24.39 694.84 25.03 C706.27 37.19 714.12 53.85 714.15 70.79 C714.15 71.92 714.16 73.05 714.16 74.22 C714.16 76.08 714.16 76.08 714.16 77.97 C714.16 79.31 714.17 80.64 714.17 81.97 C714.18 85.64 714.18 89.3 714.19 92.96 C714.19 96.91 714.2 100.87 714.21 104.82 C714.23 114.36 714.24 123.91 714.25 133.45 C714.25 137.95 714.26 142.45 714.26 146.95 C714.28 161.92 714.29 176.88 714.3 191.85 C714.3 195.73 714.31 199.61 714.31 203.49 C714.31 204.46 714.31 205.42 714.31 206.42 C714.32 222.03 714.34 237.65 714.37 253.26 C714.41 269.31 714.43 285.36 714.43 301.4 C714.43 310.41 714.44 319.41 714.47 328.41 C714.49 336.08 714.5 343.76 714.49 351.43 C714.48 355.34 714.48 359.24 714.5 363.15 C714.64 392.43 714.64 392.43 710.01 406.14 C706.12 420.53 703.35 435.13 700.51 449.75 C699.8 453.39 699.09 457.03 698.37 460.67 C697.18 466.77 695.99 472.88 694.8 478.98 C693.22 487.06 691.64 495.15 690.06 503.23 C687.71 515.24 685.36 527.25 683.02 539.27 C682.88 539.97 682.74 540.66 682.6 541.39 C681.21 548.51 679.82 555.63 678.43 562.76 C678.29 563.47 678.15 564.19 678.01 564.92 C677.8 566 677.8 566 677.59 567.09 C676.47 572.8 675.36 578.5 674.25 584.2 C673.44 588.34 672.63 592.47 671.83 596.6 C669.43 608.91 667.02 621.21 664.48 633.49 C664.1 635.34 663.72 637.18 663.34 639.03 C662.67 642.27 661.99 645.5 661.3 648.73 C659.65 656.63 658.59 664.3 658.38 672.39 C658.06 682.25 654.02 690.13 647.25 697.17 C639.5 703.99 631.27 707.38 620.9 707.41 C620.22 707.41 619.54 707.42 618.84 707.42 C616.58 707.43 614.32 707.43 612.06 707.43 C610.43 707.44 608.8 707.44 607.18 707.45 C602.77 707.47 598.35 707.47 593.94 707.47 C591.18 707.48 588.42 707.48 585.66 707.49 C576.02 707.5 566.38 707.51 556.74 707.51 C547.77 707.51 538.8 707.53 529.84 707.56 C522.12 707.59 514.41 707.6 506.69 707.6 C502.09 707.6 497.49 707.6 492.89 707.62 C488.56 707.64 484.23 707.64 479.9 707.63 C478.32 707.63 476.73 707.63 475.15 707.64 C461.32 707.74 451.47 705.43 441.01 696.14 C440.17 695.39 439.33 694.65 438.47 693.88 C430.74 686.88 423.38 679.57 416.07 672.12 C412.56 668.55 409.03 664.99 405.5 661.42 C401.04 656.92 396.59 652.41 392.15 647.88 C388.53 644.19 384.9 640.52 381.25 636.85 C379.87 635.46 378.5 634.06 377.13 632.66 C375.23 630.7 373.31 628.77 371.38 626.84 C370.82 626.26 370.26 625.68 369.69 625.08 C367.06 622.48 365.5 621.2 361.78 620.72 C358.57 621.21 356.39 622.17 353.55 623.75 C352.51 624.31 351.48 624.87 350.41 625.46 C349.31 626.07 348.21 626.69 347.07 627.33 C345.92 627.96 344.77 628.6 343.58 629.25 C340.04 631.2 336.53 633.17 333.01 635.14 C332.01 635.7 331.01 636.26 329.98 636.84 C325.28 639.48 320.59 642.13 315.91 644.8 C309.55 648.41 303.16 651.97 296.76 655.52 C295.63 656.14 294.5 656.77 293.34 657.41 C291.04 658.69 288.75 659.96 286.45 661.23 C280.8 664.37 275.16 667.5 269.51 670.64 C262.74 674.4 255.97 678.17 249.19 681.93 C236.94 688.72 224.71 695.54 212.49 702.4 C210.6 703.46 208.7 704.53 206.79 705.59 C204.91 706.64 203.04 707.7 201.17 708.77 C200.24 709.29 199.31 709.82 198.36 710.36 C197.54 710.82 196.73 711.28 195.89 711.76 C185.78 716.6 176.57 716.57 165.6 716.53 C163.73 716.53 161.86 716.54 159.99 716.54 C154.94 716.56 149.88 716.55 144.83 716.54 C139.53 716.54 134.23 716.54 128.92 716.55 C120.02 716.55 111.12 716.55 102.22 716.53 C91.95 716.52 81.67 716.52 71.39 716.54 C62.55 716.55 53.72 716.55 44.88 716.54 C39.61 716.54 34.33 716.54 29.06 716.55 C24.1 716.56 19.15 716.55 14.19 716.53 C12.37 716.53 10.56 716.53 8.74 716.54 C-2.09 716.57 -11.15 716.23 -20.8 710.64 C-21.51 710.24 -22.22 709.84 -22.94 709.42 C-25.07 708.09 -27.07 706.76 -28.99 705.14 C-28.99 704.48 -28.99 703.82 -28.99 703.14 C-29.65 703.14 -30.31 703.14 -30.99 703.14 C-32.57 701.37 -32.57 701.37 -34.36 698.89 C-34.95 698.1 -35.53 697.31 -36.14 696.5 C-42.28 685.35 -42.57 674.81 -42.51 662.44 C-42.51 660.57 -42.52 658.71 -42.53 656.84 C-42.54 651.81 -42.54 646.78 -42.53 641.75 C-42.51 636.47 -42.52 631.18 -42.53 625.9 C-42.54 617.03 -42.53 608.16 -42.51 599.29 C-42.49 589.06 -42.49 578.83 -42.52 568.6 C-42.53 559.79 -42.54 550.98 -42.53 542.17 C-42.52 536.92 -42.52 531.67 -42.53 526.41 C-42.54 521.48 -42.54 516.54 -42.51 511.6 C-42.51 509.8 -42.51 507.99 -42.52 506.19 C-42.57 494.3 -42.32 482.57 -34.33 472.93 C-32.7 470.76 -31.45 468.42 -30.12 466.06 C-28.15 462.72 -25.87 459.6 -23.61 456.45 C-22.54 454.95 -21.47 453.44 -20.39 451.93 C-19.84 451.15 -19.28 450.36 -18.7 449.56 C-15.82 445.49 -12.97 441.41 -10.11 437.33 C-8.93 435.64 -7.75 433.95 -6.57 432.26 C-5.37 430.55 -4.18 428.85 -2.99 427.14 C4.15 416.94 11.29 406.74 18.48 396.57 C24.08 388.64 29.64 380.68 35.21 372.72 C37.64 369.24 40.08 365.76 42.52 362.28 C43.72 360.57 44.9 358.86 46.08 357.15 C48.56 353.55 51.03 350.04 53.89 346.73 C60.3 338.95 61.81 331.81 61.25 321.84 C59.6 310.66 49.72 303.3 41.92 295.96 C40.05 294.13 38.19 292.29 36.33 290.45 C31.94 286.13 27.51 281.86 23.05 277.61 C18.01 272.8 13.03 267.92 8.05 263.03 C0.28 255.42 -7.52 247.84 -15.37 240.31 C-16.13 239.59 -16.88 238.86 -17.66 238.11 C-21.79 234.16 -26 230.34 -30.35 226.63 C-32.43 224.74 -33.89 222.76 -35.3 220.33 C-35.75 219.58 -36.2 218.83 -36.66 218.06 C-41.11 208.26 -41.42 199.03 -41.38 188.47 C-41.38 186.8 -41.39 185.13 -41.39 183.46 C-41.41 178.95 -41.4 174.44 -41.39 169.93 C-41.38 165.19 -41.39 160.46 -41.39 155.72 C-41.4 147.77 -41.39 139.82 -41.38 131.88 C-41.36 122.7 -41.37 113.53 -41.38 104.36 C-41.4 96.47 -41.4 88.57 -41.39 80.68 C-41.39 75.97 -41.39 71.27 -41.4 66.56 C-41.41 62.13 -41.4 57.71 -41.38 53.28 C-41.38 51.67 -41.38 50.05 -41.39 48.43 C-41.44 34.5 -39.64 22.65 -29.98 11.91 C-21.39 3.72 -11.76 0.03 0 0 Z " fill="#000000" transform="translate(69.98783874511719,47.85955810546875)"></path>
<path d="M0 0 C1.13 -0 2.25 -0.01 3.41 -0.01 C4.64 -0.01 5.87 -0.01 7.13 -0.01 C8.45 -0.02 9.76 -0.02 11.11 -0.02 C14.75 -0.03 18.38 -0.04 22.02 -0.04 C25.94 -0.04 29.87 -0.05 33.79 -0.06 C43.27 -0.08 52.75 -0.09 62.22 -0.1 C66.69 -0.11 71.16 -0.11 75.63 -0.12 C90.49 -0.13 105.35 -0.15 120.22 -0.16 C124.07 -0.16 127.93 -0.16 131.78 -0.16 C133.22 -0.16 133.22 -0.16 134.69 -0.16 C150.19 -0.17 165.7 -0.2 181.2 -0.23 C197.14 -0.26 213.07 -0.28 229.01 -0.28 C237.95 -0.28 246.89 -0.29 255.83 -0.32 C263.45 -0.34 271.07 -0.35 278.69 -0.34 C282.57 -0.33 286.45 -0.34 290.33 -0.36 C317 -0.48 339.35 1.53 359.83 20.51 C361.03 21.81 361.03 21.81 362.26 23.13 C362.87 23.76 363.47 24.38 364.1 25.02 C375.52 37.19 383.37 53.84 383.4 70.78 C383.4 71.91 383.41 73.04 383.41 74.21 C383.41 76.07 383.41 76.07 383.41 77.97 C383.42 79.3 383.42 80.63 383.42 81.97 C383.43 85.63 383.44 89.29 383.44 92.96 C383.44 96.91 383.45 100.86 383.46 104.81 C383.48 114.36 383.49 123.9 383.5 133.45 C383.5 137.95 383.51 142.45 383.52 146.94 C383.53 161.91 383.55 176.87 383.55 191.84 C383.56 195.72 383.56 199.61 383.56 203.49 C383.56 204.45 383.56 205.42 383.56 206.41 C383.57 222.03 383.6 237.64 383.63 253.26 C383.66 269.3 383.68 285.35 383.68 301.4 C383.68 310.4 383.69 319.4 383.72 328.41 C383.74 336.08 383.75 343.75 383.74 351.42 C383.73 355.33 383.74 359.24 383.76 363.15 C383.89 392.42 383.89 392.42 379.26 406.13 C375.37 420.51 372.61 435.1 369.77 449.71 C369.06 453.35 368.35 456.98 367.64 460.62 C366.44 466.72 365.25 472.83 364.06 478.94 C362.47 487.08 360.88 495.22 359.29 503.36 C356.91 515.49 354.54 527.62 352.17 539.75 C352.04 540.45 351.9 541.16 351.76 541.88 C350.49 548.34 349.23 554.81 347.97 561.27 C346.41 569.25 344.85 577.23 343.3 585.21 C342.39 589.86 341.48 594.5 340.58 599.15 C337.19 616.49 333.74 633.81 330.26 651.13 C329.27 651.46 328.28 651.79 327.26 652.13 C327.26 651.41 327.26 650.69 327.26 649.95 C327.22 632.35 327.16 614.76 327.08 597.16 C327.04 588.65 327.01 580.14 326.99 571.63 C326.98 564.21 326.95 556.79 326.91 549.37 C326.89 545.45 326.87 541.52 326.87 537.6 C326.87 533.89 326.86 530.19 326.82 526.49 C326.81 524.5 326.82 522.51 326.83 520.51 C326.7 509.28 324.21 499.42 316.26 491.13 C313.72 488.93 311.06 487 308.26 485.13 C307.48 484.56 306.7 483.98 305.89 483.38 C298.13 479.69 288.7 479.13 280.26 480.13 C275.9 481.72 272.05 483.93 268.08 486.32 C266.06 487.48 264.05 488.64 262.03 489.8 C261.16 490.32 260.29 490.84 259.4 491.37 C256.65 492.92 253.89 494.34 251.07 495.74 C250.17 496.19 249.27 496.64 248.34 497.1 C247.66 497.44 246.97 497.78 246.26 498.13 C246.26 497.39 246.26 496.65 246.26 495.88 C246.23 451.75 246.17 407.63 246.09 363.51 C246.08 358.2 246.07 352.9 246.06 347.6 C246.06 346.55 246.05 345.49 246.05 344.41 C246.02 327.33 246 310.25 245.99 293.18 C245.98 275.65 245.95 258.12 245.91 240.6 C245.89 229.78 245.87 218.97 245.87 208.16 C245.87 200.74 245.86 193.32 245.83 185.91 C245.82 181.63 245.81 177.35 245.82 173.07 C245.83 169.15 245.82 165.23 245.79 161.31 C245.79 159.89 245.79 158.48 245.8 157.07 C245.88 142.45 242.76 130.4 232.83 119.45 C231.98 118.68 231.14 117.92 230.26 117.13 C229.79 116.65 229.31 116.17 228.82 115.68 C218.33 105.67 205.34 104.99 191.65 104.98 C190.38 104.97 189.11 104.97 187.8 104.96 C184.28 104.95 180.76 104.94 177.24 104.93 C173.45 104.93 169.65 104.91 165.85 104.9 C159.27 104.88 152.69 104.86 146.11 104.84 C136.6 104.82 127.09 104.79 117.58 104.76 C102.15 104.72 86.72 104.67 71.29 104.63 C56.3 104.59 41.31 104.55 26.33 104.51 C25.4 104.5 24.48 104.5 23.53 104.5 C18.89 104.48 14.25 104.47 9.62 104.46 C-28.83 104.34 -67.28 104.24 -105.74 104.13 C-104.1 99.8 -101.9 96.42 -99.11 92.76 C-93.42 85.15 -87.99 77.38 -82.59 69.56 C-79.24 64.71 -75.85 59.9 -72.36 55.15 C-68.29 49.61 -65.09 44.08 -62.15 37.88 C-59.89 33.49 -56.91 29.89 -53.74 26.13 C-53.21 25.42 -52.69 24.7 -52.15 23.97 C-40.47 9 -18.68 0.03 0 0 Z " fill="#0070BF" transform="translate(400.7352113723755,47.86577892303467)"></path>
<path d="M0 0 C0.33 0 0.66 0 1 0 C1 1.85 1 1.85 1.01 3.74 C1.09 33.04 1.18 62.34 1.28 91.65 C1.29 95.25 1.31 98.86 1.32 102.47 C1.32 103.19 1.32 103.91 1.32 104.65 C1.36 116.27 1.4 127.9 1.43 139.52 C1.46 151.45 1.5 163.38 1.54 175.32 C1.57 182.02 1.59 188.72 1.6 195.42 C1.62 201.72 1.64 208.03 1.67 214.34 C1.68 216.65 1.68 218.97 1.68 221.28 C1.69 224.44 1.7 227.61 1.72 230.77 C1.72 232.14 1.72 232.14 1.72 233.53 C1.83 246.76 5.62 259.36 15 269 C23.82 276.61 33.78 282.1 45.64 282.14 C46.55 282.14 47.46 282.15 48.4 282.16 C49.39 282.16 50.38 282.16 51.4 282.16 C52.98 282.17 52.98 282.17 54.6 282.17 C58.15 282.19 61.7 282.2 65.25 282.21 C67.79 282.21 70.34 282.22 72.88 282.24 C78.36 282.26 83.83 282.28 89.31 282.29 C97.23 282.31 105.15 282.34 113.06 282.37 C125.91 282.42 138.76 282.46 151.61 282.5 C164.09 282.54 176.57 282.58 189.05 282.63 C189.81 282.63 190.58 282.63 191.38 282.64 C195.24 282.65 199.1 282.66 202.96 282.68 C234.97 282.79 266.99 282.9 299 283 C295.86 285.4 292.69 287.37 289.21 289.27 C288.06 289.9 286.9 290.54 285.71 291.19 C285.1 291.53 284.48 291.86 283.85 292.21 C281.24 293.63 278.63 295.06 276.03 296.5 C274.68 297.24 273.33 297.98 271.98 298.72 C265.39 302.33 258.82 305.97 252.25 309.62 C251.14 310.24 250.03 310.86 248.89 311.49 C240.39 316.22 231.9 320.97 223.41 325.73 C212.44 331.88 201.44 337.98 190.45 344.09 C184.61 347.33 178.77 350.57 172.94 353.81 C170.7 355.06 168.46 356.3 166.22 357.54 C165.17 358.13 164.11 358.71 163.03 359.32 C145.87 368.85 145.87 368.85 143.96 369.9 C142.57 370.68 141.2 371.47 139.83 372.28 C139.08 372.71 138.34 373.14 137.57 373.59 C136.91 373.98 136.25 374.37 135.57 374.77 C125.62 379.54 116.39 379.43 105.59 379.39 C103.72 379.39 101.85 379.4 99.98 379.4 C94.93 379.42 89.87 379.41 84.82 379.4 C79.51 379.4 74.21 379.4 68.91 379.41 C60.01 379.41 51.11 379.41 42.21 379.39 C31.93 379.37 21.66 379.38 11.38 379.4 C2.54 379.41 -6.3 379.41 -15.13 379.4 C-20.41 379.4 -25.68 379.4 -30.95 379.41 C-35.91 379.42 -40.87 379.41 -45.82 379.39 C-47.64 379.39 -49.45 379.39 -51.27 379.4 C-62.1 379.43 -71.16 379.08 -80.81 373.5 C-81.52 373.1 -82.23 372.7 -82.96 372.28 C-85.08 370.95 -87.08 369.62 -89 368 C-89 367.34 -89 366.68 -89 366 C-89.66 366 -90.32 366 -91 366 C-92.59 364.23 -92.59 364.23 -94.38 361.75 C-94.96 360.96 -95.55 360.17 -96.15 359.36 C-102.29 348.21 -102.58 337.67 -102.52 325.29 C-102.52 323.43 -102.53 321.57 -102.54 319.7 C-102.56 314.67 -102.55 309.64 -102.54 304.61 C-102.53 299.33 -102.54 294.04 -102.54 288.76 C-102.55 279.89 -102.54 271.02 -102.52 262.15 C-102.5 251.92 -102.51 241.69 -102.53 231.46 C-102.55 222.65 -102.55 213.84 -102.54 205.03 C-102.53 199.78 -102.53 194.53 -102.55 189.27 C-102.56 184.34 -102.55 179.4 -102.53 174.46 C-102.52 172.66 -102.52 170.85 -102.53 169.05 C-102.58 157.16 -102.33 145.43 -94.34 135.79 C-92.72 133.62 -91.46 131.28 -90.13 128.92 C-88.16 125.58 -85.89 122.46 -83.62 119.31 C-82.55 117.8 -81.48 116.3 -80.41 114.79 C-79.85 114.01 -79.29 113.22 -78.71 112.42 C-75.83 108.35 -72.98 104.27 -70.12 100.19 C-68.94 98.5 -67.76 96.81 -66.58 95.12 C-65.39 93.41 -64.19 91.71 -63 90 C-55.86 79.79 -48.72 69.59 -41.53 59.43 C-35.93 51.5 -30.37 43.54 -24.8 35.58 C-22.98 32.97 -21.15 30.35 -19.32 27.74 C-18.71 26.88 -18.11 26.02 -17.49 25.13 C-16.3 23.44 -15.11 21.75 -13.93 20.05 C-11.32 16.33 -8.72 12.61 -6.16 8.86 C-5.73 8.24 -5.31 7.62 -4.88 6.99 C-3.77 5.37 -2.67 3.76 -1.57 2.14 C-1.05 1.43 -0.54 0.73 0 0 Z " fill="#E237E7" transform="translate(130,385)"></path>
<path d="M0 0 C0.69 -0 1.38 -0.01 2.1 -0.01 C4.41 -0.02 6.72 -0.02 9.03 -0.02 C10.69 -0.03 12.35 -0.03 14 -0.04 C18.51 -0.05 23.01 -0.06 27.52 -0.06 C30.33 -0.06 33.15 -0.07 35.97 -0.07 C44.79 -0.08 53.61 -0.09 62.43 -0.1 C72.6 -0.1 82.77 -0.12 92.93 -0.15 C100.8 -0.17 108.67 -0.18 116.54 -0.18 C121.23 -0.18 125.93 -0.19 130.62 -0.21 C135.04 -0.22 139.46 -0.23 143.88 -0.22 C145.5 -0.22 147.12 -0.22 148.73 -0.23 C162.66 -0.31 174.5 1.49 185.24 11.14 C193.43 19.73 197.15 29.37 197.13 41.13 C197.13 41.82 197.13 42.5 197.13 43.21 C197.13 45.45 197.12 47.7 197.11 49.94 C197.11 51.5 197.11 53.07 197.11 54.63 C197.1 58.73 197.09 62.83 197.08 66.93 C197.07 71.12 197.07 75.31 197.06 79.5 C197.05 87.71 197.03 95.93 197.01 104.14 C195.25 104.15 195.25 104.15 193.46 104.15 C182.35 104.19 171.24 104.25 160.14 104.32 C154.43 104.36 148.72 104.4 143.01 104.41 C137.49 104.43 131.97 104.46 126.46 104.51 C124.36 104.52 122.26 104.53 120.17 104.53 C104.6 104.54 91.81 105.31 79.01 115.14 C78.15 115.72 77.28 116.3 76.39 116.89 C68.03 124.81 62.36 135.87 61.87 147.44 C61.87 148.71 61.86 149.97 61.85 151.27 C61.85 151.98 61.84 152.68 61.84 153.41 C61.82 155.77 61.82 158.14 61.81 160.5 C61.8 162.19 61.79 163.89 61.78 165.58 C61.75 170.18 61.73 174.78 61.71 179.38 C61.69 184.19 61.66 188.99 61.63 193.8 C61.58 202.9 61.54 212 61.49 221.11 C61.45 231.47 61.39 241.83 61.34 252.19 C61.22 273.51 61.11 294.83 61.01 316.14 C55.81 311.79 50.96 307.22 46.18 302.41 C45.06 301.28 45.06 301.28 43.91 300.14 C42.3 298.52 40.68 296.9 39.07 295.27 C36.51 292.7 33.95 290.14 31.39 287.57 C25.03 281.19 18.67 274.81 12.31 268.43 C6.93 263.03 1.55 257.63 -3.83 252.24 C-6.35 249.72 -8.86 247.2 -11.37 244.67 C-12.92 243.11 -14.48 241.56 -16.03 240 C-17.06 238.96 -17.06 238.96 -18.12 237.89 C-22.05 233.97 -26.09 230.24 -30.32 226.64 C-32.42 224.75 -33.89 222.77 -35.3 220.33 C-35.75 219.58 -36.2 218.83 -36.66 218.06 C-41.11 208.26 -41.42 199.03 -41.38 188.47 C-41.38 186.8 -41.39 185.13 -41.39 183.46 C-41.41 178.95 -41.4 174.44 -41.39 169.93 C-41.38 165.19 -41.39 160.46 -41.39 155.72 C-41.4 147.77 -41.39 139.82 -41.38 131.88 C-41.36 122.7 -41.37 113.53 -41.38 104.36 C-41.4 96.47 -41.4 88.57 -41.39 80.68 C-41.39 75.97 -41.39 71.27 -41.4 66.56 C-41.41 62.13 -41.4 57.71 -41.38 53.28 C-41.38 51.67 -41.38 50.05 -41.39 48.43 C-41.44 34.5 -39.64 22.65 -29.98 11.91 C-21.39 3.72 -11.76 0.03 0 0 Z " fill="#519592" transform="translate(69.98783874511719,47.85955810546875)"></path>
<path d="M0 0 C0.88 0.07 1.76 0.15 2.66 0.22 C12.82 1.62 20.91 7.95 27.34 15.66 C31.98 22.21 34.13 28.91 34.12 36.87 C34.12 38.67 34.12 38.67 34.12 40.51 C34.12 41.82 34.12 43.14 34.11 44.49 C34.11 45.89 34.11 47.29 34.11 48.69 C34.11 52.49 34.11 56.28 34.1 60.08 C34.1 64.05 34.09 68.02 34.09 71.99 C34.09 79.5 34.08 87.02 34.07 94.53 C34.06 103.09 34.06 111.64 34.05 120.2 C34.04 137.8 34.02 155.4 34 173 C34.66 173 35.32 173 36 173 C35.81 177.09 35.56 181.17 35.31 185.25 C35.26 186.39 35.21 187.53 35.15 188.7 C34.34 201.14 30.51 211.63 21 220 C13.46 225.49 6.31 228.24 -3.11 228.27 C-4.13 228.27 -4.13 228.27 -5.17 228.28 C-7.43 228.29 -9.69 228.29 -11.95 228.29 C-13.58 228.3 -15.21 228.3 -16.84 228.31 C-21.25 228.33 -25.66 228.33 -30.07 228.33 C-32.83 228.34 -35.59 228.34 -38.35 228.35 C-47.99 228.36 -57.63 228.37 -67.27 228.37 C-76.24 228.37 -85.21 228.39 -94.18 228.42 C-101.89 228.45 -109.61 228.46 -117.32 228.46 C-121.92 228.46 -126.52 228.46 -131.12 228.48 C-135.45 228.5 -139.78 228.5 -144.11 228.49 C-145.7 228.49 -147.28 228.49 -148.86 228.5 C-171.48 228.67 -183.1 217.68 -198.54 202.55 C-202.43 198.71 -206.3 194.84 -210.17 190.96 C-211.59 189.54 -213.01 188.13 -214.43 186.71 C-217.37 183.77 -220.31 180.83 -223.25 177.88 C-227.03 174.1 -230.81 170.32 -234.59 166.55 C-237.5 163.63 -240.42 160.72 -243.33 157.81 C-244.72 156.41 -246.12 155.02 -247.51 153.62 C-249.45 151.69 -251.38 149.75 -253.32 147.81 C-254.18 146.95 -254.18 146.95 -255.07 146.06 C-259 142.11 -259 142.11 -259 141 C-258.13 141 -257.26 140.99 -256.37 140.99 C-235.24 140.91 -214.1 140.82 -192.97 140.71 C-182.75 140.66 -172.53 140.62 -162.31 140.58 C-153.4 140.55 -144.49 140.51 -135.58 140.46 C-130.87 140.43 -126.15 140.41 -121.43 140.4 C-116.99 140.38 -112.55 140.36 -108.11 140.33 C-106.48 140.32 -104.85 140.32 -103.23 140.32 C-87.5 140.29 -72.79 138.47 -61 127 C-51.6 116.11 -47.54 105.45 -48.16 91.07 C-48.22 89.49 -48.27 87.92 -48.32 86.34 C-48.35 85.52 -48.38 84.69 -48.41 83.84 C-48.58 78.5 -48.64 73.15 -48.72 67.81 C-48.79 63.13 -48.9 58.45 -49.11 53.78 C-50.39 23.55 -50.39 23.55 -44.83 16.08 C-39.51 11.55 -33.63 9.14 -27.02 7.06 C-22.83 5.59 -19.15 3.46 -15.33 1.22 C-10.4 -1.36 -5.36 -0.54 0 0 Z " fill="#DE9F05" transform="translate(694,527)"></path>
<path d="M0 0 C96.73 0 96.73 0 113.81 16.55 C126.23 30.46 127.84 46.56 127.18 64.49 C126.26 77.34 120.78 92.24 111 101 C107.75 103.47 104.42 105.78 101 108 C102.46 112.7 104.34 117.13 106.42 121.59 C106.93 122.68 106.93 122.68 107.44 123.8 C108.17 125.37 108.89 126.93 109.62 128.5 C111.54 132.64 113.45 136.78 115.36 140.92 C115.74 141.76 116.13 142.6 116.53 143.46 C120.1 151.2 123.63 158.95 127.14 166.71 C127.75 168.07 128.37 169.43 128.99 170.79 C129.84 172.66 130.69 174.54 131.54 176.42 C132.01 177.48 132.49 178.54 132.98 179.63 C134 182 134 182 134 183 C120.47 183 106.94 183 93 183 C79.06 149.27 79.06 149.27 72.92 134.03 C72.39 132.72 71.86 131.41 71.33 130.11 C70.59 128.3 69.86 126.48 69.13 124.66 C68.72 123.64 68.31 122.61 67.88 121.55 C67 119 67 119 67 116 C56.11 116 45.22 116 34 116 C34 138.11 34 160.22 34 183 C22.78 183 11.56 183 0 183 C0 122.61 0 62.22 0 0 Z " fill="#FDFDFD" transform="translate(267,315)"></path>
<path d="M0 0 C11.22 0 22.44 0 34 0 C34 50.16 34 100.32 34 152 C64.36 152 94.72 152 126 152 C126 162.23 126 172.46 126 183 C84.42 183 42.84 183 0 183 C0 122.61 0 62.22 0 0 Z " fill="#FDFDFD" transform="translate(424,315)"></path>
<path d="M0 0 C0.99 0.5 0.99 0.5 2 1 C-0.69 15.79 -3.48 30.55 -6.37 45.3 C-6.71 47.05 -7.05 48.8 -7.39 50.54 C-8.16 54.47 -8.93 58.41 -9.7 62.34 C-11.13 69.66 -12.56 76.98 -13.99 84.31 C-16.5 97.15 -19.01 109.99 -21.52 122.83 C-22.97 130.28 -24.42 137.72 -25.88 145.17 C-27.17 151.8 -28.47 158.43 -29.77 165.06 C-30.44 168.53 -31.12 171.99 -31.8 175.45 C-35.48 194.31 -39.22 213.16 -43 232 C-43.99 232.33 -44.98 232.66 -46 233 C-46 232.28 -46 231.56 -46 230.81 C-46.04 213.22 -46.1 195.62 -46.18 178.03 C-46.22 169.52 -46.26 161.01 -46.27 152.5 C-46.28 145.08 -46.31 137.66 -46.35 130.24 C-46.38 126.31 -46.39 122.39 -46.39 118.46 C-46.39 114.76 -46.41 111.06 -46.44 107.35 C-46.45 105.36 -46.45 103.37 -46.44 101.38 C-46.57 90.14 -49.06 80.29 -57 72 C-59.55 69.8 -62.2 67.87 -65 66 C-65.78 65.42 -66.57 64.85 -67.38 64.25 C-74.61 60.8 -83.12 60.57 -91 60 C-87.36 56.91 -83.67 54.61 -79.44 52.39 C-78.5 51.89 -78.5 51.89 -77.55 51.39 C-75.55 50.34 -73.56 49.29 -71.56 48.25 C-68.96 46.88 -66.36 45.51 -63.75 44.14 C-63.11 43.8 -62.47 43.46 -61.81 43.12 C-56.16 40.12 -50.63 36.95 -45.12 33.71 C-42.08 32.04 -39.04 30.7 -35.81 29.44 C-21.34 23.64 -10.08 13.53 -1 1 C-0.67 0.67 -0.34 0.34 0 0 Z " fill="#8A8E94" transform="translate(774,467)"></path>
<path d="M0 0 C5.9 -0.08 11.8 -0.17 17.88 -0.25 C20.64 -0.3 20.64 -0.3 23.45 -0.36 C41.9 -0.58 41.9 -0.58 48.89 5.69 C54.45 11.51 56.54 17.93 56.38 25.88 C56.37 26.58 56.36 27.28 56.35 28 C56.09 36.7 54.16 42.84 48 49 C41.78 53.46 35.75 54.29 28.32 54.2 C27.6 54.19 26.88 54.19 26.13 54.19 C23.46 54.18 20.79 54.15 18.12 54.12 C9.15 54.06 9.15 54.06 0 54 C0 36.18 0 18.36 0 0 Z " fill="#050505" transform="translate(301,346)"></path>
<path d="M0 0 C-14.63 8.1 -29.27 16.17 -43.99 24.11 C-49.48 27.07 -54.94 30.07 -60.39 33.11 C-61.01 33.45 -61.63 33.8 -62.27 34.15 C-65.3 35.84 -68.33 37.54 -71.36 39.24 C-72.44 39.85 -73.53 40.45 -74.64 41.08 C-75.61 41.62 -76.57 42.16 -77.56 42.72 C-80 44 -80 44 -83 45 C-83 30.81 -83 16.62 -83 2 C-77.88 1.95 -72.77 1.9 -67.5 1.85 C-64.25 1.82 -61 1.78 -57.75 1.74 C-52.6 1.68 -47.44 1.62 -42.29 1.58 C-38.13 1.54 -33.98 1.49 -29.82 1.44 C-28.24 1.42 -26.66 1.41 -25.07 1.4 C-22.85 1.38 -20.63 1.35 -18.4 1.32 C-17.14 1.31 -15.88 1.29 -14.58 1.28 C-9.52 0.88 -4.88 -1.95 0 0 Z " fill="#3E6ECA" transform="translate(730,501)"></path>
<path d="M0 0 C1.39 2.78 0.53 3.89 -0.39 6.83 C-2.8 16.01 -2.57 25.32 -2.69 34.75 C-2.72 36.62 -2.76 38.49 -2.79 40.37 C-2.88 44.91 -2.94 49.46 -3 54 C-14.22 54 -25.44 54 -37 54 C-35.22 49.55 -33.22 46.36 -30.38 42.62 C-24.67 35.01 -19.24 27.22 -13.84 19.39 C-9.32 12.85 -4.7 6.4 0 0 Z " fill="#3A6FC7" transform="translate(332,98)"></path>
<path d="M0 0 C1.27 2.55 0.8 3.43 0.06 6.12 C-0.13 6.85 -0.33 7.57 -0.53 8.32 C-0.76 9.15 -0.76 9.15 -1 10 C-2.32 10.33 -3.64 10.66 -5 11 C-3.55 7.21 -1.85 3.61 0 0 Z " fill="#2D7DB1" transform="translate(777,458)"></path>
</svg>
